<svg id="Layer_1" data-name="Layer 1" xmlns="http://www.w3.org/2000/svg" viewBox="0 0 536 417.93"><defs><style>.cls-1,.cls-2{fill:#fff;}.cls-2{stroke:#fff;stroke-miterlimit:10;}</style></defs><title>orgChartIcon</title><path class="cls-1" d="M753.52,624.17h-107a22.38,22.38,0,0,1-22.36-22.36V513.39A22.38,22.38,0,0,1,646.49,491h107a22.38,22.38,0,0,1,22.36,22.36v88.42A22.38,22.38,0,0,1,753.52,624.17Zm-107-111.68a0.91,0.91,0,0,0-.91.91v88.42a0.91,0.91,0,0,0,.91.91h107a0.91,0.91,0,0,0,.91-0.91V513.39a0.91,0.91,0,0,0-.91-0.91h-107Z" transform="translate(-432 -491.03)"/><path class="cls-1" d="M753.52,909h-107a22.38,22.38,0,0,1-22.36-22.36V798.19a22.38,22.38,0,0,1,22.36-22.36h107a22.38,22.38,0,0,1,22.36,22.36v88.42A22.38,22.38,0,0,1,753.52,909Zm-107-111.68a0.91,0.91,0,0,0-.91.91v88.42a0.91,0.91,0,0,0,.91.91h107a0.91,0.91,0,0,0,.91-0.91V798.19a0.91,0.91,0,0,0-.91-0.91h-107Z" transform="translate(-432 -491.03)"/><path class="cls-1" d="M945.64,909h-107a22.38,22.38,0,0,1-22.36-22.36V798.19a22.38,22.38,0,0,1,22.36-22.36h107A22.38,22.38,0,0,1,968,798.19v88.42A22.38,22.38,0,0,1,945.64,909Zm-107-111.68a0.91,0.91,0,0,0-.91.91v88.42a0.91,0.91,0,0,0,.91.91h107a0.91,0.91,0,0,0,.91-0.91V798.19a0.91,0.91,0,0,0-.91-0.91h-107Z" transform="translate(-432 -491.03)"/><path class="cls-1" d="M561.39,909h-107A22.38,22.38,0,0,1,432,886.61V798.19a22.38,22.38,0,0,1,22.36-22.36h107a22.38,22.38,0,0,1,22.36,22.36v88.42A22.38,22.38,0,0,1,561.39,909Zm-107-111.68a0.91,0.91,0,0,0-.91.91v88.42a0.93,0.93,0,0,0,.91.91h107a0.91,0.91,0,0,0,.91-0.91V798.19a0.91,0.91,0,0,0-.91-0.91h-107Z" transform="translate(-432 -491.03)"/><path class="cls-1" d="M902.85,786.56H881.4v-70.4H518.6v70.4H497.15V705.43a10.73,10.73,0,0,1,10.73-10.73H892.13a10.73,10.73,0,0,1,10.73,10.73v81.13Z" transform="translate(-432 -491.03)"/><rect class="cls-1" x="257.27" y="125.95" width="21.45" height="169.58"/><rect class="cls-2" x="211.02" y="15.09" width="113.96" height="102.95"/><rect class="cls-2" x="15.88" y="302.56" width="119.99" height="97.62"/><rect class="cls-2" x="203.3" y="294.06" width="128.06" height="114.61"/><rect class="cls-2" x="394.98" y="300.92" width="130.3" height="100.89"/></svg>