<svg id="Layer_1" data-name="Layer 1" xmlns="http://www.w3.org/2000/svg" viewBox="0 0 492.06 466.21"><defs><style>.cls-1{fill:#fff;}</style></defs><title>tpsIcon</title><polygon class="cls-1" points="245.74 330.21 277.62 330.21 261.68 363.3 245.74 396.38 229.8 363.3 213.86 330.21 245.74 330.21"/><path class="cls-1" d="M500,262A131.89,131.89,0,1,0,631.89,393.93,131.89,131.89,0,0,0,500,262ZM430.66,407.29A13.36,13.36,0,1,1,444,393.93,13.36,13.36,0,0,1,430.66,407.29Zm69.34,0a13.36,13.36,0,1,1,13.36-13.36A13.36,13.36,0,0,1,500,407.29Zm69.34,0a13.36,13.36,0,1,1,13.36-13.36A13.36,13.36,0,0,1,569.34,407.29Z" transform="translate(-253.97 -170.24)"/><path class="cls-1" d="M707.06,392.14c0-276.08-414.11-276.08-414.11,0H278.1c0-295.87,443.8-295.87,443.8,0H707.06Z" transform="translate(-253.97 -170.24)"/><path class="cls-1" d="M697.41,469.59C667.65,560.65,592.78,618.18,512,612.1l-0.54,10.44c84.56,6.36,162.9-53.83,194-149.11Z" transform="translate(-253.97 -170.24)"/><ellipse class="cls-1" cx="247.19" cy="445.86" rx="33.14" ry="20.35"/><path class="cls-1" d="M687,521a7.27,7.27,0,0,1-10.11,1.86h0a7.27,7.27,0,0,1-1.86-10.11L682,502.7a7.27,7.27,0,0,1,10.11-1.86h0A7.27,7.27,0,0,1,694,510.95Z" transform="translate(-253.97 -170.24)"/><path class="cls-1" d="M288.3,482.92l-2,.5c-12.28,3.17-26-8.85-30.66-26.85l-0.17-.66c-4.65-18,1.53-35.17,13.82-38.34l2-.5Z" transform="translate(-253.97 -170.24)"/><path class="cls-1" d="M321.35,508.6l-10.64,2.75c-11.61,3-24.6-8.37-29-25.39L264,417.59c-4.4-17,1.45-33.26,13.07-36.26l10.64-2.75c8.6-2.22,18.21,6.19,21.46,18.79L331,481.76C334.28,494.36,329.95,506.38,321.35,508.6Z" transform="translate(-253.97 -170.24)"/><path class="cls-1" d="M711.7,482.92l2,0.5c12.28,3.17,26-8.85,30.66-26.85l0.17-.66c4.65-18-1.53-35.17-13.82-38.34l-2-.5Z" transform="translate(-253.97 -170.24)"/><path class="cls-1" d="M678.65,508.6l10.64,2.75c11.61,3,24.6-8.37,29-25.39L736,417.59c4.4-17-1.45-33.26-13.07-36.26l-10.64-2.75c-8.6-2.22-18.21,6.19-21.46,18.79L669,481.76C665.72,494.36,670.05,506.38,678.65,508.6Z" transform="translate(-253.97 -170.24)"/></svg>