<svg id="Icon" xmlns="http://www.w3.org/2000/svg" viewBox="0 0 500 322"><defs><style>.cls-1{fill:#fff;fill-rule:evenodd;}</style></defs><title>unitedStates</title><path class="cls-1" d="M252.45,393.68c0,2.53-.48,4.73-1.13,5.65,1.15,2.43,3.83,5.85,2.26,9.42v0.38c1.26,0.08,1.43-.45,2.26,1.13l-4.53.75c-2.36-4.3-15.84-3-17.36-7.53-0.91-.57-4.27-9.86-4.53-11.67v-1.51c-3.37-2.49-14.44-16.09-13.21-17.7l-4.53-3.39-2.26-4.14c-9.6-5.48-14.68,4.95-18.87,7.91-7.27-2.09-17.5-11.66-17.74-19.58,0.24-.32-2.48-2-1.13-3-4.39-4.21-12.18-8.65-12.83-13.56l-18.49-1.51L139.62,341l-30.94-3.39c-3.18-3-18.53-12.81-21.89-13.18l-1.89-1.13-1.51-1.13-1.13-.38-1.51-1.51c-1.28-1.56-9.2-2.8-7.93-5.65l-24.15-3.77c-0.12-6.92-1.55-12.87-5.66-16.57l-3.4-.75c-1.61-1.82-1-3.25-1.89-3.77-0.71-.91-2.4-0.57-3.4-1.13-2.75-1.54-3.85-4.6-5.66-7.16-4.22.79-6.33-2.34-10.19-4.14,0-3.06,2.26-7.76.75-9.42-1.56,0-8.3-16.57-8.3-16.57-0.23-2.56,2.57-2.82,1.51-5.65,0,0-4-3.8-4.53-4.9L8.3,234H9.43l-0.38.75c1.12-.77.45-0.27,0.75-1.13a5.25,5.25,0,0,0-1.13-3.39c-0.31,1.18,0,.87-1.89,1.51-0.29-1.85-2.12-1.68-2.64-4.52a2.49,2.49,0,0,0,.75-3c-1.39-2.83-1.5-5.83-3.77-9.42-0.73-1.15.7-.86,0.75-1.13,1.25-6.81.71-10-1.89-15.07v-4.14a35.15,35.15,0,0,1,4.91-4.52l-0.38-3.39c2.42-5.19-.26-10.18,1.51-15.06C8.8,163.85,11.52,155,17,149.26l0.38-4.14a28.6,28.6,0,0,1,4.15-6l1.89-9.41h3.4L26,128.92c-0.24-1.15-.85-0.8-1.89-2.64v-1.13c1.73-.23,1.13.26,2.26-1.13l-1.51-2.64,1.51-1.51c-1.31-5-.62-11.76-1.89-15.82l1.89-1.51c5.9,4,7.85,4.24,14.34,8.29-1.63.73-2.18,1.47-2.64,3.39,1.33,0.61,1.31-.33,1.89,1.88l-1.51,2.26c-1.89-.41-4.61-0.69-2.64,1.88V121a27.82,27.82,0,0,0,6-2.26c-0.61-2.36-.29-4.47,1.13-5.65a3.37,3.37,0,0,0,1.51-.38c-0.47-3,.28-11.86-2.64-13.18l0.38-1.13,25.66,8.29c7.24,3.79,16.16,2.78,23.4,6l8.3,1.13c13.32,4.14,28.22,4.48,44.15,7.91,10.35,2.23,24.5,4.75,36.6,4.14,19.16-1,42.36,4,62.26.75,6.64-1.07,12.67,1.23,18.49-1.13l2.26-4.14c1,0.93.58,0.51,0.75,1.51,1.45,0.51,1.74,3.78,3,5.65,7.75-1.34,8.48,2.05,17-.38l-0.38.75a4.2,4.2,0,0,1,1.13,3.39H286c0.17-1-.23-0.57.75-1.51,2,0.53,5.55,1.7,6,3.39,4.29-1.43,7.62-2.25,14.72-.75v0.38l-0.75.75-1.51,1.51c-4.61.11-9.75,8-13.58,13.18h-1.13l0.38,1.13c4.21,0,5.81-.54,8.3-2.26l1.13,0.38v3c12.58,0,15.59-11,24.53-13.93-1.21,2.32-5.14,3.91-3.77,8.29,5.6-3.86,10,5.9,15.09,3,1.62-.91,3.6-3.41,4.91-4.14,1.94-1.09,5.09-.74,6-2.64l0.75,0.38c0,2-.29,3.56.75,3l0.76,1.13c2.14-.15,4.14-0.5,4.9-1.51,0.76,0.67,3.65,3.19,3.4,4.14L357,150c-2-1.08-2.74-1-4.53,1.51-2.53-1.38-3.63-1.14-6.41-1.88-0.65,2.94-6.53,5.18-7.93,8.29l-0.75-.38,0.75-2.26-0.75.38c-1.64.23-.59,0.1-1.89,1.13L334,155.66c-0.47,6.45-4.37,7.92-5.66,16.95h1.13c0.83-1.82,3.4-7.24,5.66-7.91l0.38-.75c-0.67,9-7.5,21.85-1.51,30.13v3.39c0,4.87,1.4,6.13,4.53,8.66,10.6-3.13,8.77-19.23,3.4-27.87l1.51-13.18c2.76-.42,1.69-1.72,3.77-3.39h0.38l0.38,3h1.89v-4.9c1.18-1,1.64-.49,2.64-2.26-1-.17-1,0-1.89-1.13a5.65,5.65,0,0,1,3.77-3c0.15,0.91,10.53,3.25,12.08,4.14-1.62,3.55.67,3.09,1.51,5.65,1.42,4.32-2.8,10-3.77,11.68,0.71,0.53.6,0,.38,1.51l1.51,0.38c1.47-2.41,4.14-6.29,7.54-6.4,0.35,3.49,5,7.83,6,15.06l-3.4,1.13c-0.58,5.37-2.58,9.42-3,12.81a32.64,32.64,0,0,1,7.17,2.64c0.33-.84,6.2-4.21,7.92-4.52,4.57-.82,20.84-20.6,23-21.09-1.29-3.6-2.21-3.68-3.77-6.4,4.55-1.67,9.41-2.32,14-4.14l0.76,0.38c3-2.24,5.45-4.65,9.43-5.65-1.42-3.3-.25-3.37-1.51-7.16-1.69.45-3.2,0.06-2.64-.75l-0.76.38c0.41-2.46,2.42-3.8,3.77-4.9,0.9-.72-0.27-2.33.38-3.77,1.85-4.09,6.94-9.85,13.58-10.17,0,0,8.11-3.23,8.3-3,1.63-1.35,8.69-5,10.57-4.14a4.69,4.69,0,0,1,.38-3.39c2.07-.86,2.4-1.32,3.77-1.13,0-4.94.49-27.06,3.4-30.13l3,1.51c2.76-2.33,3.76-3.5,5.28-4.9,1.24,0.79,2.67.15,3.77,1.51,2.87,2,6.27,12,6,13.93,4.35-.76,7.22,6.32,10.94,7.53-0.31,5-6.81,6.87-6,9.79H491.7l-0.76,3h-1.89c-0.18-1.24.18-1.07-1.51-1.88l-0.76,1.51c4.79,3-14.39,19.2-8.68,24.86l1.89,1.51a2.78,2.78,0,0,0-.75,4.14c1.37,2.35,3.61,3.84,4.91,5.65,2.62-.73,2.79-0.23,4.53-1.51l-0.38-1.88-1.51-1.88v-0.75h0.38l4.15,2.26a8.84,8.84,0,0,0-.75,2.26c-1.95.85-7.59,4.66-8.3,6.78-1.93-.5-1.28-0.8-2.64-1.51-0.75,2-.9,4-2.26,5.27-0.5.06-22.87,11.43-18.11,20l3,0.38c-0.41,4.65-1.61,16.56-5.28,19.58v-3.39a11.47,11.47,0,0,1-5.66-1.51c0.28,1.93.16,5.49,2.26,4.9,0.71,1.55,1.83,1.62,3.4,2.26,0.42,6.29.17,15.91-3.4,18.08,0-3.74.59-3.48,1.13-7.15-2.58,0-2.15-.19-2.64-1.13-1.36-1.16-1.52-5-4.53-4.14,0.75-3.59-1.4-2.9-2.26-5.65,1-.47.49-3.6,1.13-5.65h-1.51a25.94,25.94,0,0,1-2.64,5.65c1,1.34,3.12,8.23,4.15,7.91l1.51,1.51c-0.93.74-.15,0.21-1.13,0.38l-1.13,1.13a2.56,2.56,0,0,0,1.89,1.13l1.51,1.51v2.26h-1.89c-0.22-.33-0.93-1.29-1.89.38l0.75-.38c0.63,1.28,2.77,2.19,3.77,3.39l-1.89,1.13v1.13c1.66,0.23,1.82.52,2.64,2.26-1.75-.51-2.27-1.19-3.4.75,1,0.16.21-.37,1.13,0.38l6-.38,2.26,3.39c-1.39.94-.06,3.29,0.75,4.9-4.38.36-2.92,2.23-7.55,1.51q0.19,1.88.38,3.77h1.13c3.15-2.27,4.45-.84,6.79-0.75l0.75-2.64c1.41,0.69,1.59.69,1.51,1.88h0.75c-0.44,2.93-1.08,6.07-3.4,6.4-0.66,1.36-2.63.11-3.77-.38-1,2.78-1.67,1.57-2.26,3.77l2.64-.38-0.75,4.14a3.76,3.76,0,0,0-2.64.75l0.38,0.75,0.75-.38c2.57,0.52,2.62-1.72,4.53-2.26l0.75,1.88c-0.92.64,0.13,1.4-1.13,1.13,0,0-8.07,5.51-9.81,7.53-0.17,1.51-.13,5.87-2.26,7.16-1.62,1-4.49.93-6,2.64-0.61,3.87-12.51,24.28-18.11,23.73,0.72,4.44-2.11,11.82-3.4,16.95l1.51,7.53c-0.26.31-4.19,2.65-1.89,4.52a1.63,1.63,0,0,0,.75,1.51c-0.06-2.9.2-3.68,1.51-4.52h0.38c0,8.52,5.91,13.91,11.7,20.71l-1.13.38c-0.88-.8,0-0.17-1.13-0.38,3.13,5.32,19.25,26.94,8.68,41.8-4.59.05-1.95,1.34-5.66,0.75l0.76-1.13c1-.16.21,0.37,1.13-0.38v-0.75c-9.12-1.76-12.14-15-15.47-16.57-2.13-1-3.06.78-4.15-.38-1.94-2.06-1.73-4.52-3.4-4.9,1-1.7,2.26-3.25,0-5.27-1.29.88-.86,0.45-1.13,1.51-1.15-.73-0.39-0.12-0.75-1.13-2.37-1.88.25-9.74-1.51-12.43-2.66-4.06-7-2.57-9.43-5.65-1.86-2.33-1.22-2.75-3.77-5.27l-6.42.38c0.18,1,.92,3.14-0.75,2.26-0.2,1.59-5.7,3.63-6.79,3-1-.2-5.27-4.67-5.66-4.52a75.9,75.9,0,0,0-15.85-.38c-0.15,2.69-.15,1.57-1.51,2.64l-4.15.38c-1.37-1.15-.86-1.74-3-2.64l0.38,0.75c-1.58.86-.69,1.44-1.89,2.26l-8.3.38c-1.32.82-2.92,3.28-4.53,3.39-2.33.67-5.95-.76-6.41-1.88l-4.91,1.88,0.76,1.13c0.93,0.56.34,0.45,1.13,1.51h4.53s0.23-2.38.76-1.13h1.51V353l5.28-.75,1.13,1.13a2.49,2.49,0,0,0-.38,1.51c-2.49.2-2.27,0.5-3.4,1.88,0.48,1.2-.12.86,0.75,1.51,1,1.32,3.64,1.57,5.28,3.39l-0.38.75-1.89,2.26h-0.38c-0.58-.69-9.06-6.78-9.06-6.78-0.71-.92-0.21-0.36-1.89-0.75,0,0.25.18,1.39-.38,0.75a2.48,2.48,0,0,1,.38,1.51c1.75,0.15,1.71-.31,2.64,1.88l0.38,2.26-7.17,1.51a1.62,1.62,0,0,0-1.13,1.51,7.77,7.77,0,0,1-4.53-2.26c0.2-1.85.28-6.12-.75-7.16-0.42-1.05-1.66-1-2.64-1.51,0.81,2.15,2.84,4,1.89,5.65-0.87-1.29-4.42-1.48-5.28-3-1.45.64-3.12,1.6-3,3.77-5.62.07-9.92,0-11.7-1.88-1.55,1.18-14.22,5.3-15.47,5.65,0.76-1.36.64-.73,0.76-2.26l-1.13-1.88h-1.13c-1.27,11.51-8.74,12.94-16.6,13.93V376c0.6,1.36,1.26.88,0.38,1.88-1.3.24-1.18,0.22-2.64,1.51-0.74-1.4.16-.62-1.51-1.13,0,3.41-1.5,2.26-2.26,4.9-1.92-.16-1.35,0-1.89.38-0.5.58-.49,1.67-0.38,3a2.78,2.78,0,0,0-2.64,1.13h0.75c0.58,0.69-.06.47,1.13,0.38-0.73,2.12-1,2.23-.75,4.52l-2.26-.75-0.38,1.13,0.38,0.75h1.89Z" transform="translate(0 -89)"/><path class="cls-1" d="M470.57,91.64l0.38,0.75Z" transform="translate(0 -89)"/><path class="cls-1" d="M41.13,98l0.75,0.75Z" transform="translate(0 -89)"/><path class="cls-1" d="M315.85,130.8l-0.76,2.26-0.75-.75,0.75-.38Z" transform="translate(0 -89)"/><path class="cls-1" d="M314,132.69c0.33,0.94-.14,1.5-0.76,2.64l-0.75-.38v-1.51C313.46,133.27,313,133.67,314,132.69Z" transform="translate(0 -89)"/><path class="cls-1" d="M307.92,133.44h0Z" transform="translate(0 -89)"/><path class="cls-1" d="M347.55,141.73h0Z" transform="translate(0 -89)"/><path class="cls-1" d="M475.47,174.87c0.52,1.19.49,0.08,0,1.51l-0.76-.38Z" transform="translate(0 -89)"/><path class="cls-1" d="M472.83,176.37l1.13,0.75c-4,3.67-9.52,6.78-12.83,9.79l-0.38-1.51,0.38-.38c1.35-1.62,2.12-4.15,3.4-4.9C467.49,178.4,471.22,178.68,472.83,176.37Z" transform="translate(0 -89)"/><path class="cls-1" d="M454,229.85l0.38,0.75Z" transform="translate(0 -89)"/><path class="cls-1" d="M457.36,243.41l0.38,0.75Z" transform="translate(0 -89)"/><path class="cls-1" d="M430.57,351.5l0.38,0.75h-0.75Z" transform="translate(0 -89)"/></svg>